<?xml version="1.0" encoding="utf-8"?>
<!-- Generator: Adobe Illustrator 16.0.3, SVG Export Plug-In . SVG Version: 6.00 Build 0)  -->
<!DOCTYPE svg PUBLIC "-//W3C//DTD SVG 1.1//EN" "http://www.w3.org/Graphics/SVG/1.1/DTD/svg11.dtd">
<svg version="1.1" id="图层_1" xmlns="http://www.w3.org/2000/svg" xmlns:xlink="http://www.w3.org/1999/xlink" x="0px" y="0px"
	 width="22.946px" height="85.523px" viewBox="0 0 22.946 85.523" enable-background="new 0 0 22.946 85.523" xml:space="preserve">
<path fill-rule="evenodd" clip-rule="evenodd" fill="#AB965D" d="M6.226-0.25c-0.15,5.994,0.409,11.897,2.436,17.581
	c1.262,3.541,3.21,6.706,5.43,9.743c3.67,5.021,6.63,10.448,8.019,16.556c1.705,7.488,0.907,14.674-3.333,21.262
	c-0.735,1.142-1.638,2.175-2.567,3.216c0.515-1.984,0.334-4.016,0.338-5.965c0.007-3.166-0.307-6.368-1.029-9.494
	C14.18,46.872,11.803,41.576,8.32,36.77c-2.556-3.525-5.077-7.078-6.654-11.188C-1.445,17.469,0.01,9.883,4.296,2.612
	c0.56-0.95,1.302-1.797,1.662-2.862C6.047-0.25,6.137-0.25,6.226-0.25z"/>
</svg>
