<?xml version="1.0" encoding="utf-8"?>
<!-- Generator: Adobe Illustrator 16.0.3, SVG Export Plug-In . SVG Version: 6.00 Build 0)  -->
<!DOCTYPE svg PUBLIC "-//W3C//DTD SVG 1.1//EN" "http://www.w3.org/Graphics/SVG/1.1/DTD/svg11.dtd">
<svg version="1.1" id="图层_1" xmlns="http://www.w3.org/2000/svg" xmlns:xlink="http://www.w3.org/1999/xlink" x="0px" y="0px"
	 width="170.36px" height="171.009px" viewBox="0 0 170.36 171.009" enable-background="new 0 0 170.36 171.009"
	 xml:space="preserve">
<g>
	<path fill-rule="evenodd" clip-rule="evenodd" fill="#AB965D" d="M79.828,0c-0.15,5.994,0.409,11.897,2.436,17.581
		c1.262,3.541,3.21,6.706,5.43,9.743c3.67,5.021,6.63,10.448,8.019,16.556c1.705,7.488,0.907,14.674-3.333,21.262
		c-0.735,1.142-1.638,2.175-2.567,3.216c0.515-1.984,0.334-4.016,0.338-5.965c0.007-3.166-0.307-6.368-1.029-9.494
		c-1.338-5.776-3.715-11.072-7.197-15.879c-2.556-3.525-5.077-7.078-6.654-11.188c-3.111-8.112-1.656-15.698,2.63-22.969
		C78.458,1.912,79.2,1.065,79.561,0C79.649,0,79.739,0,79.828,0z"/>
	<path fill-rule="evenodd" clip-rule="evenodd" fill="#AB965D" d="M50.907,6.987c1.908,5.684,4.453,11.04,8.301,15.688
		c2.397,2.896,5.311,5.204,8.436,7.299c5.165,3.463,9.803,7.55,13.197,12.814c4.162,6.454,5.871,13.479,4.14,21.119
		c-0.3,1.324-0.796,2.604-1.312,3.9c-0.195-2.041-1.06-3.889-1.723-5.721c-1.077-2.978-2.467-5.88-4.215-8.569
		c-3.231-4.971-7.276-9.134-12.194-12.459c-3.606-2.439-7.191-4.916-10.078-8.239c-5.7-6.559-6.927-14.185-5.386-22.483
		c0.201-1.084,0.608-2.133,0.583-3.257C50.739,7.048,50.823,7.018,50.907,6.987z"/>
	<path fill-rule="evenodd" clip-rule="evenodd" fill="#AB965D" d="M26.12,23.444c3.736,4.688,7.96,8.852,13.166,11.902
		c3.242,1.9,6.77,3.074,10.422,3.974c6.038,1.487,11.795,3.742,16.784,7.527c6.119,4.642,10.128,10.658,11.114,18.431
		c0.17,1.347,0.143,2.719,0.1,4.114c-0.881-1.852-2.325-3.292-3.575-4.788c-2.029-2.428-4.328-4.681-6.892-6.609
		c-4.736-3.566-9.962-6.095-15.72-7.538c-4.224-1.059-8.438-2.159-12.288-4.295c-7.6-4.213-11.36-10.96-12.75-19.285
		c-0.182-1.088-0.158-2.213-0.566-3.261C25.982,23.56,26.051,23.501,26.12,23.444z"/>
	<path fill-rule="evenodd" clip-rule="evenodd" fill="#AB965D" d="M8.456,47.387c5.115,3.128,10.508,5.595,16.442,6.682
		c3.698,0.677,7.413,0.573,11.153,0.169c6.183-0.667,12.362-0.517,18.347,1.334c7.338,2.268,13.162,6.551,16.747,13.517
		c0.621,1.208,1.064,2.507,1.501,3.832c-1.461-1.438-3.311-2.298-4.997-3.275c-2.738-1.588-5.669-2.919-8.736-3.854
		c-5.671-1.73-11.445-2.32-17.351-1.706c-4.33,0.448-8.668,0.856-13.016,0.167c-8.582-1.36-14.424-6.414-18.577-13.762
		c-0.543-0.96-0.905-2.025-1.647-2.87C8.366,47.542,8.411,47.464,8.456,47.387z"/>
	<path fill-rule="evenodd" clip-rule="evenodd" fill="#AB965D" d="M0.046,75.927c5.877,1.189,11.788,1.663,17.736,0.654
		c3.706-0.628,7.162-1.996,10.539-3.655c5.581-2.741,11.439-4.714,17.695-5.021c7.672-0.378,14.609,1.654,20.36,6.974
		c0.997,0.923,1.858,1.992,2.722,3.088c-1.865-0.852-3.897-1.027-5.816-1.369c-3.116-0.556-6.324-0.804-9.527-0.634
		c-5.921,0.313-11.549,1.734-16.888,4.331c-3.916,1.902-7.853,3.77-12.174,4.608c-8.53,1.657-15.748-1.095-22.164-6.578
		C1.691,77.607,0.986,76.73,0,76.19C0.015,76.103,0.03,76.015,0.046,75.927z"/>
	<path fill-rule="evenodd" clip-rule="evenodd" fill="#AB965D" d="M1.904,105.622c5.929-0.893,11.646-2.469,16.891-5.451
		c3.269-1.858,6.048-4.326,8.653-7.04c4.308-4.485,9.138-8.342,14.911-10.771c7.079-2.978,14.294-3.441,21.518-0.409
		c1.252,0.526,2.427,1.235,3.613,1.971c-2.044-0.162-4.013,0.367-5.934,0.702c-3.118,0.543-6.219,1.408-9.17,2.663
		c-5.457,2.319-10.26,5.58-14.388,9.846c-3.029,3.128-6.09,6.229-9.863,8.494c-7.449,4.475-15.173,4.358-23.078,1.399
		c-1.032-0.387-1.995-0.97-3.106-1.14C1.936,105.798,1.92,105.71,1.904,105.622z"/>
	<path fill-rule="evenodd" clip-rule="evenodd" fill="#AB965D" d="M13.808,132.89c5.266-2.865,10.099-6.303,14.008-10.898
		c2.435-2.863,4.203-6.135,5.723-9.574c2.514-5.688,5.733-10.965,10.328-15.223c5.634-5.22,12.255-8.122,20.08-7.744
		c1.356,0.066,2.703,0.331,4.069,0.616c-1.977,0.547-3.646,1.718-5.335,2.689c-2.745,1.577-5.362,3.45-7.707,5.64
		c-4.334,4.045-7.732,8.751-10.152,14.172c-1.776,3.975-3.592,7.936-6.363,11.355c-5.47,6.752-12.767,9.283-21.208,9.207
		c-1.103-0.01-2.206-0.229-3.309-0.008C13.897,133.046,13.852,132.968,13.808,132.89z"/>
	<path fill-rule="evenodd" clip-rule="evenodd" fill="#AB965D" d="M34.319,154.444c3.968-4.496,7.334-9.377,9.435-15.033
		c1.309-3.525,1.853-7.203,2.104-10.955c0.417-6.205,1.638-12.266,4.499-17.836c3.509-6.832,8.737-11.824,16.22-14.146
		c1.298-0.401,2.653-0.613,4.035-0.812c-1.67,1.188-2.838,2.86-4.094,4.352c-2.04,2.422-3.858,5.076-5.313,7.936
		c-2.689,5.284-4.272,10.868-4.692,16.79c-0.311,4.342-0.662,8.684-2.096,12.846c-2.83,8.217-8.822,13.092-16.779,15.906
		c-1.04,0.367-2.152,0.539-3.112,1.123C34.456,154.558,34.388,154.501,34.319,154.444z"/>
	<path fill-rule="evenodd" clip-rule="evenodd" fill="#AB965D" d="M60.966,167.683c2.191-5.582,3.685-11.32,3.724-17.355
		c0.024-3.758-0.723-7.4-1.77-11.012c-1.731-5.975-2.656-12.086-1.873-18.301c0.96-7.619,4.167-14.099,10.403-18.839
		c1.082-0.821,2.284-1.483,3.514-2.144c-1.162,1.688-1.688,3.659-2.357,5.489c-1.09,2.974-1.891,6.089-2.279,9.274
		c-0.72,5.885-0.298,11.674,1.332,17.383c1.194,4.186,2.35,8.387,2.425,12.787c0.15,8.689-3.812,15.32-10.327,20.686
		c-0.852,0.701-1.837,1.244-2.54,2.121C61.133,167.743,61.049,167.712,60.966,167.683z"/>
	<path fill-rule="evenodd" clip-rule="evenodd" fill="#AB965D" d="M90.532,171.009c0.15-5.996-0.409-11.898-2.436-17.582
		c-1.263-3.541-3.21-6.707-5.43-9.744c-3.67-5.021-6.63-10.447-8.02-16.555c-1.703-7.49-0.906-14.674,3.333-21.262
		c0.736-1.142,1.639-2.176,2.568-3.216c-0.515,1.984-0.335,4.016-0.338,5.965c-0.007,3.165,0.307,6.368,1.03,9.493
		c1.336,5.777,3.713,11.072,7.197,15.879c2.554,3.525,5.076,7.078,6.652,11.188c3.113,8.113,1.657,15.699-2.63,22.971
		c-0.56,0.949-1.301,1.797-1.661,2.861C90.711,171.007,90.621,171.007,90.532,171.009z"/>
	<path fill-rule="evenodd" clip-rule="evenodd" fill="#AB965D" d="M119.454,164.021c-1.908-5.684-4.454-11.041-8.303-15.688
		c-2.396-2.895-5.31-5.205-8.435-7.299c-5.166-3.463-9.803-7.551-13.198-12.814c-4.162-6.455-5.87-13.479-4.139-21.119
		c0.301-1.324,0.795-2.604,1.312-3.9c0.195,2.041,1.059,3.888,1.723,5.721c1.076,2.977,2.467,5.879,4.216,8.568
		c3.231,4.973,7.275,9.135,12.194,12.459c3.604,2.439,7.189,4.916,10.077,8.238c5.7,6.561,6.926,14.186,5.385,22.484
		c-0.201,1.084-0.608,2.133-0.582,3.258C119.621,163.96,119.537,163.989,119.454,164.021z"/>
	<path fill-rule="evenodd" clip-rule="evenodd" fill="#AB965D" d="M144.241,147.563c-3.737-4.689-7.961-8.852-13.167-11.902
		c-3.243-1.9-6.771-3.074-10.422-3.975c-6.039-1.488-11.794-3.74-16.785-7.527c-6.119-4.643-10.127-10.658-11.113-18.429
		c-0.17-1.349-0.143-2.72-0.101-4.115c0.882,1.852,2.325,3.292,3.576,4.787c2.029,2.43,4.328,4.681,6.892,6.61
		c4.737,3.566,9.962,6.094,15.721,7.537c4.222,1.059,8.437,2.158,12.287,4.295c7.6,4.213,11.36,10.961,12.75,19.285
		c0.182,1.088,0.158,2.213,0.567,3.262C144.378,147.448,144.309,147.505,144.241,147.563z"/>
	<path fill-rule="evenodd" clip-rule="evenodd" fill="#AB965D" d="M161.905,123.62c-5.116-3.127-10.509-5.596-16.443-6.682
		c-3.697-0.676-7.414-0.572-11.153-0.168c-6.184,0.666-12.362,0.518-18.347-1.334c-7.338-2.27-13.162-6.551-16.747-13.517
		c-0.621-1.209-1.064-2.507-1.501-3.832c1.461,1.438,3.311,2.298,4.996,3.275c2.739,1.589,5.669,2.919,8.738,3.854
		c5.671,1.731,11.445,2.32,17.35,1.706c4.329-0.449,8.667-0.856,13.016-0.167c8.583,1.36,14.424,6.414,18.577,13.762
		c0.542,0.959,0.905,2.025,1.647,2.869C161.993,123.466,161.949,123.542,161.905,123.62z"/>
	<path fill-rule="evenodd" clip-rule="evenodd" fill="#AB965D" d="M170.315,95.081c-5.878-1.19-11.789-1.664-17.737-0.654
		c-3.706,0.629-7.163,1.997-10.538,3.655c-5.583,2.742-11.44,4.715-17.697,5.022c-7.671,0.377-14.608-1.655-20.359-6.975
		c-0.997-0.924-1.857-1.991-2.722-3.088c1.865,0.852,3.896,1.028,5.815,1.368c3.117,0.558,6.325,0.805,9.529,0.635
		c5.921-0.312,11.549-1.734,16.887-4.331c3.915-1.903,7.852-3.77,12.174-4.608c8.53-1.657,15.748,1.095,22.164,6.579
		c0.838,0.716,1.543,1.593,2.529,2.133C170.345,94.905,170.329,94.993,170.315,95.081z"/>
	<path fill-rule="evenodd" clip-rule="evenodd" fill="#AB965D" d="M168.456,65.385c-5.93,0.893-11.646,2.469-16.892,5.452
		c-3.267,1.858-6.047,4.326-8.652,7.04c-4.308,4.485-9.138,8.342-14.911,10.771c-7.08,2.978-14.294,3.441-21.518,0.41
		c-1.253-0.527-2.427-1.236-3.613-1.972c2.044,0.162,4.014-0.366,5.933-0.703c3.12-0.542,6.219-1.407,9.172-2.662
		c5.457-2.319,10.259-5.58,14.388-9.846c3.027-3.128,6.088-6.228,9.862-8.494c7.45-4.476,15.173-4.357,23.078-1.398
		c1.031,0.386,1.994,0.969,3.106,1.139C168.425,65.21,168.439,65.298,168.456,65.385z"/>
	<path fill-rule="evenodd" clip-rule="evenodd" fill="#AB965D" d="M156.554,38.116c-5.268,2.867-10.101,6.304-14.009,10.9
		c-2.435,2.864-4.202,6.134-5.724,9.574c-2.514,5.688-5.732,10.965-10.327,15.223c-5.635,5.219-12.255,8.122-20.08,7.744
		c-1.357-0.067-2.703-0.331-4.069-0.616c1.977-0.547,3.646-1.717,5.335-2.689c2.745-1.577,5.362-3.45,7.707-5.64
		c4.335-4.045,7.731-8.752,10.152-14.172c1.775-3.975,3.592-7.935,6.363-11.355c5.47-6.754,12.768-9.284,21.208-9.207
		c1.102,0.009,2.205,0.229,3.309,0.007C156.463,37.962,156.508,38.04,156.554,38.116z"/>
	<path fill-rule="evenodd" clip-rule="evenodd" fill="#AB965D" d="M136.042,16.562c-3.97,4.496-7.336,9.378-9.436,15.034
		c-1.309,3.524-1.852,7.202-2.104,10.954c-0.417,6.206-1.638,12.266-4.499,17.837c-3.51,6.832-8.737,11.824-16.22,14.146
		c-1.299,0.401-2.653,0.613-4.035,0.812c1.67-1.189,2.838-2.86,4.094-4.352c2.04-2.422,3.858-5.076,5.313-7.936
		c2.689-5.284,4.271-10.869,4.692-16.79c0.31-4.342,0.661-8.685,2.096-12.847c2.83-8.217,8.822-13.091,16.779-15.905
		c1.039-0.368,2.151-0.54,3.111-1.125C135.904,16.449,135.973,16.507,136.042,16.562z"/>
	<path fill-rule="evenodd" clip-rule="evenodd" fill="#AB965D" d="M109.396,3.325c-2.192,5.582-3.687,11.32-3.725,17.354
		c-0.024,3.759,0.723,7.4,1.77,11.013c1.731,5.974,2.656,12.085,1.873,18.3c-0.961,7.62-4.167,14.1-10.403,18.84
		c-1.083,0.821-2.284,1.483-3.514,2.144c1.162-1.688,1.688-3.658,2.357-5.489c1.09-2.974,1.891-6.09,2.279-9.274
		c0.72-5.886,0.297-11.674-1.333-17.383c-1.194-4.186-2.349-8.387-2.424-12.789c-0.151-8.688,3.812-15.318,10.327-20.685
		c0.851-0.7,1.837-1.242,2.539-2.121C109.227,3.265,109.312,3.296,109.396,3.325z"/>
</g>
</svg>
